<mxfile host="app.diagrams.net" agent="Mozilla/5.0 (X11; Ubuntu; Linux x86_64; rv:133.0) Gecko/20100101 Firefox/133.0" version="24.8.4">
  <diagram name="Page-1" id="ipFBkh6hO6ZNqpEqA9Zr">
    <mxGraphModel dx="1147" dy="640" grid="1" gridSize="10" guides="1" tooltips="1" connect="1" arrows="1" fold="1" page="1" pageScale="1" pageWidth="850" pageHeight="1100" math="0" shadow="0">
      <root>
        <mxCell id="0" />
        <mxCell id="1" parent="0" />
        <mxCell id="MHwz3ngFE6legUIcCq0M-1" value="" style="ellipse;html=1;shape=startState;fillColor=#000000;strokeColor=#ff0000;" vertex="1" parent="1">
          <mxGeometry x="90" y="285" width="30" height="30" as="geometry" />
        </mxCell>
        <mxCell id="MHwz3ngFE6legUIcCq0M-2" value="" style="edgeStyle=orthogonalEdgeStyle;html=1;verticalAlign=bottom;endArrow=open;endSize=8;strokeColor=#ff0000;rounded=0;entryX=0;entryY=0.5;entryDx=0;entryDy=0;" edge="1" source="MHwz3ngFE6legUIcCq0M-1" parent="1" target="MHwz3ngFE6legUIcCq0M-3">
          <mxGeometry relative="1" as="geometry">
            <mxPoint x="105" y="380" as="targetPoint" />
          </mxGeometry>
        </mxCell>
        <mxCell id="MHwz3ngFE6legUIcCq0M-27" style="edgeStyle=orthogonalEdgeStyle;rounded=0;orthogonalLoop=1;jettySize=auto;html=1;exitX=0.25;exitY=1;exitDx=0;exitDy=0;entryX=0.25;entryY=0;entryDx=0;entryDy=0;" edge="1" parent="1" source="MHwz3ngFE6legUIcCq0M-3" target="MHwz3ngFE6legUIcCq0M-4">
          <mxGeometry relative="1" as="geometry" />
        </mxCell>
        <mxCell id="MHwz3ngFE6legUIcCq0M-40" value="&lt;div&gt;js source&lt;/div&gt;&lt;div&gt;&amp;nbsp;requested&lt;/div&gt;" style="edgeLabel;html=1;align=center;verticalAlign=middle;resizable=0;points=[];" vertex="1" connectable="0" parent="MHwz3ngFE6legUIcCq0M-27">
          <mxGeometry x="-0.2857" y="-2" relative="1" as="geometry">
            <mxPoint as="offset" />
          </mxGeometry>
        </mxCell>
        <mxCell id="MHwz3ngFE6legUIcCq0M-35" style="edgeStyle=orthogonalEdgeStyle;rounded=0;orthogonalLoop=1;jettySize=auto;html=1;entryX=0;entryY=0.5;entryDx=0;entryDy=0;" edge="1" parent="1" source="MHwz3ngFE6legUIcCq0M-3" target="MHwz3ngFE6legUIcCq0M-26">
          <mxGeometry relative="1" as="geometry" />
        </mxCell>
        <mxCell id="MHwz3ngFE6legUIcCq0M-50" value="&lt;div&gt;continue&amp;nbsp;&lt;/div&gt;&lt;div&gt;parsing&lt;/div&gt;" style="edgeLabel;html=1;align=center;verticalAlign=middle;resizable=0;points=[];" vertex="1" connectable="0" parent="MHwz3ngFE6legUIcCq0M-35">
          <mxGeometry x="-0.0179" y="1" relative="1" as="geometry">
            <mxPoint as="offset" />
          </mxGeometry>
        </mxCell>
        <mxCell id="MHwz3ngFE6legUIcCq0M-3" value="&lt;div&gt;HTML document loading &amp;amp; parsing&lt;/div&gt;&lt;div&gt;&lt;br&gt;&lt;/div&gt;&lt;div&gt;Content:&amp;nbsp;&lt;/div&gt;&lt;div&gt;&amp;lt;&lt;b&gt;div&lt;/b&gt; id=&quot;&lt;b&gt;map&lt;/b&gt;&quot;&amp;gt;&lt;br&gt;&lt;/div&gt;" style="rounded=1;whiteSpace=wrap;html=1;fillColor=#f8cecc;strokeColor=#b85450;" vertex="1" parent="1">
          <mxGeometry x="160" y="240" width="120" height="120" as="geometry" />
        </mxCell>
        <mxCell id="MHwz3ngFE6legUIcCq0M-28" style="edgeStyle=orthogonalEdgeStyle;rounded=0;orthogonalLoop=1;jettySize=auto;html=1;exitX=0.75;exitY=0;exitDx=0;exitDy=0;entryX=0.75;entryY=1;entryDx=0;entryDy=0;" edge="1" parent="1" source="MHwz3ngFE6legUIcCq0M-4" target="MHwz3ngFE6legUIcCq0M-3">
          <mxGeometry relative="1" as="geometry" />
        </mxCell>
        <mxCell id="MHwz3ngFE6legUIcCq0M-30" value="&lt;b&gt;ol&lt;/b&gt;" style="edgeLabel;html=1;align=center;verticalAlign=middle;resizable=0;points=[];" vertex="1" connectable="0" parent="MHwz3ngFE6legUIcCq0M-28">
          <mxGeometry x="0.0476" y="2" relative="1" as="geometry">
            <mxPoint as="offset" />
          </mxGeometry>
        </mxCell>
        <mxCell id="MHwz3ngFE6legUIcCq0M-4" value="&lt;div&gt;&amp;lt;&amp;lt;ol.js&amp;gt;&amp;gt;&lt;br&gt;&lt;/div&gt;&lt;div&gt;&lt;br&gt;&lt;/div&gt;&lt;div&gt;JavaScript sources loading &amp;amp; parsing&lt;/div&gt;&lt;div&gt;&lt;br&gt;&lt;/div&gt;&lt;div&gt;Content: &lt;b&gt;ol&lt;/b&gt; object&lt;br&gt;&lt;/div&gt;" style="rounded=1;whiteSpace=wrap;html=1;fillColor=#f8cecc;strokeColor=#b85450;" vertex="1" parent="1">
          <mxGeometry x="160" y="440" width="120" height="120" as="geometry" />
        </mxCell>
        <mxCell id="MHwz3ngFE6legUIcCq0M-32" style="edgeStyle=orthogonalEdgeStyle;rounded=0;orthogonalLoop=1;jettySize=auto;html=1;exitX=0.75;exitY=0;exitDx=0;exitDy=0;entryX=0.75;entryY=1;entryDx=0;entryDy=0;" edge="1" parent="1" source="MHwz3ngFE6legUIcCq0M-6" target="MHwz3ngFE6legUIcCq0M-26">
          <mxGeometry relative="1" as="geometry" />
        </mxCell>
        <mxCell id="MHwz3ngFE6legUIcCq0M-33" value="&lt;div&gt;&lt;b&gt;#map&lt;/b&gt;&lt;/div&gt;&lt;div&gt;&lt;b&gt;.box&lt;br&gt;&lt;/b&gt;&lt;/div&gt;" style="edgeLabel;html=1;align=center;verticalAlign=middle;resizable=0;points=[];" vertex="1" connectable="0" parent="MHwz3ngFE6legUIcCq0M-32">
          <mxGeometry x="0.0476" y="-1" relative="1" as="geometry">
            <mxPoint as="offset" />
          </mxGeometry>
        </mxCell>
        <mxCell id="MHwz3ngFE6legUIcCq0M-6" value="&lt;div&gt;&amp;lt;&amp;lt;demo3a.css&amp;gt;&amp;gt;&lt;br&gt;&lt;/div&gt;&lt;div&gt;&lt;br&gt;&lt;/div&gt;&lt;div&gt;CSS sources loading &amp;amp; parsing&lt;/div&gt;&lt;div&gt;&lt;br&gt;&lt;/div&gt;&lt;div&gt;Content: Styles of #&lt;b&gt;map &lt;/b&gt;and&lt;b&gt; .box&lt;/b&gt;&lt;br&gt;&lt;/div&gt;" style="rounded=1;whiteSpace=wrap;html=1;fillColor=#e1d5e7;strokeColor=#9673a6;" vertex="1" parent="1">
          <mxGeometry x="360" y="440" width="120" height="120" as="geometry" />
        </mxCell>
        <mxCell id="MHwz3ngFE6legUIcCq0M-44" style="edgeStyle=orthogonalEdgeStyle;rounded=0;orthogonalLoop=1;jettySize=auto;html=1;exitX=0.25;exitY=0;exitDx=0;exitDy=0;entryX=0.25;entryY=1;entryDx=0;entryDy=0;" edge="1" parent="1" source="MHwz3ngFE6legUIcCq0M-14" target="MHwz3ngFE6legUIcCq0M-43">
          <mxGeometry relative="1" as="geometry" />
        </mxCell>
        <mxCell id="MHwz3ngFE6legUIcCq0M-52" value="&lt;div&gt;get&lt;/div&gt;&lt;div&gt;map&lt;/div&gt;&lt;div&gt;object&lt;br&gt;&lt;/div&gt;" style="edgeLabel;html=1;align=center;verticalAlign=middle;resizable=0;points=[];" vertex="1" connectable="0" parent="MHwz3ngFE6legUIcCq0M-44">
          <mxGeometry x="0.1333" y="1" relative="1" as="geometry">
            <mxPoint as="offset" />
          </mxGeometry>
        </mxCell>
        <mxCell id="MHwz3ngFE6legUIcCq0M-49" style="edgeStyle=orthogonalEdgeStyle;rounded=0;orthogonalLoop=1;jettySize=auto;html=1;entryX=0;entryY=0.5;entryDx=0;entryDy=0;" edge="1" parent="1" source="MHwz3ngFE6legUIcCq0M-14" target="MHwz3ngFE6legUIcCq0M-48">
          <mxGeometry relative="1" as="geometry" />
        </mxCell>
        <mxCell id="MHwz3ngFE6legUIcCq0M-56" value="&lt;div&gt;finalize&lt;/div&gt;&lt;div&gt;parsing&lt;br&gt;&lt;/div&gt;" style="edgeLabel;html=1;align=center;verticalAlign=middle;resizable=0;points=[];" vertex="1" connectable="0" parent="MHwz3ngFE6legUIcCq0M-49">
          <mxGeometry x="-0.2505" relative="1" as="geometry">
            <mxPoint as="offset" />
          </mxGeometry>
        </mxCell>
        <mxCell id="MHwz3ngFE6legUIcCq0M-14" value="&lt;div&gt;HTML parsing reached to internal &amp;lt;script&amp;gt; and started to execute it&lt;/div&gt;&lt;div&gt;&lt;br&gt;&lt;/div&gt;&lt;div&gt;Contents:&lt;/div&gt;&lt;div&gt;&amp;lt;&lt;b&gt;div&lt;/b&gt; id=&quot;&lt;b&gt;map&lt;/b&gt;&quot;&amp;gt;&lt;/div&gt;&lt;div&gt;&lt;b&gt;ol&lt;/b&gt; object&lt;br&gt;&lt;/div&gt;&lt;div&gt;&quot;&lt;b&gt;map&lt;/b&gt;&quot; object&lt;br&gt;&lt;/div&gt;" style="rounded=1;whiteSpace=wrap;html=1;fillColor=#fff2cc;strokeColor=#d6b656;" vertex="1" parent="1">
          <mxGeometry x="560" y="410" width="120" height="150" as="geometry" />
        </mxCell>
        <mxCell id="MHwz3ngFE6legUIcCq0M-47" style="edgeStyle=orthogonalEdgeStyle;rounded=0;orthogonalLoop=1;jettySize=auto;html=1;exitX=0.75;exitY=1;exitDx=0;exitDy=0;entryX=0.75;entryY=0;entryDx=0;entryDy=0;" edge="1" parent="1" source="MHwz3ngFE6legUIcCq0M-20" target="MHwz3ngFE6legUIcCq0M-43">
          <mxGeometry relative="1" as="geometry" />
        </mxCell>
        <mxCell id="MHwz3ngFE6legUIcCq0M-54" value="&lt;b&gt;OSM()&lt;/b&gt;" style="edgeLabel;html=1;align=center;verticalAlign=middle;resizable=0;points=[];" vertex="1" connectable="0" parent="MHwz3ngFE6legUIcCq0M-47">
          <mxGeometry x="0.2" relative="1" as="geometry">
            <mxPoint as="offset" />
          </mxGeometry>
        </mxCell>
        <mxCell id="MHwz3ngFE6legUIcCq0M-20" value="&lt;div&gt;&lt;br&gt;&lt;/div&gt;&lt;div&gt;&lt;br&gt;&lt;/div&gt;&lt;div&gt;tile map loading&lt;br&gt;&lt;/div&gt;&lt;div&gt;&lt;br&gt;&lt;/div&gt;&lt;div&gt;Contents:&lt;/div&gt;&lt;div&gt;&lt;b&gt;ol.source.OSM()&lt;/b&gt;&lt;br&gt;&lt;/div&gt;&lt;div&gt;&lt;br&gt;&lt;/div&gt;&lt;div&gt;&lt;br&gt;&lt;/div&gt;" style="rounded=1;whiteSpace=wrap;html=1;fillColor=#ffe6cc;strokeColor=#d79b00;" vertex="1" parent="1">
          <mxGeometry x="560" y="160" width="120" height="70" as="geometry" />
        </mxCell>
        <mxCell id="MHwz3ngFE6legUIcCq0M-31" style="edgeStyle=orthogonalEdgeStyle;rounded=0;orthogonalLoop=1;jettySize=auto;html=1;exitX=0.25;exitY=1;exitDx=0;exitDy=0;entryX=0.25;entryY=0;entryDx=0;entryDy=0;" edge="1" parent="1" source="MHwz3ngFE6legUIcCq0M-26" target="MHwz3ngFE6legUIcCq0M-6">
          <mxGeometry relative="1" as="geometry" />
        </mxCell>
        <mxCell id="MHwz3ngFE6legUIcCq0M-41" value="&lt;div&gt;accessed to&lt;/div&gt;&lt;div&gt;CSS source&lt;br&gt;&lt;/div&gt;" style="edgeLabel;html=1;align=center;verticalAlign=middle;resizable=0;points=[];" vertex="1" connectable="0" parent="MHwz3ngFE6legUIcCq0M-31">
          <mxGeometry x="-0.2286" y="1" relative="1" as="geometry">
            <mxPoint as="offset" />
          </mxGeometry>
        </mxCell>
        <mxCell id="MHwz3ngFE6legUIcCq0M-36" style="edgeStyle=orthogonalEdgeStyle;rounded=0;orthogonalLoop=1;jettySize=auto;html=1;" edge="1" parent="1" source="MHwz3ngFE6legUIcCq0M-26" target="MHwz3ngFE6legUIcCq0M-14">
          <mxGeometry relative="1" as="geometry">
            <Array as="points">
              <mxPoint x="520" y="300" />
              <mxPoint x="520" y="485" />
            </Array>
          </mxGeometry>
        </mxCell>
        <mxCell id="MHwz3ngFE6legUIcCq0M-51" value="&lt;div&gt;continue&lt;/div&gt;&lt;div&gt;parsing&lt;br&gt;&lt;/div&gt;" style="edgeLabel;html=1;align=center;verticalAlign=middle;resizable=0;points=[];" vertex="1" connectable="0" parent="MHwz3ngFE6legUIcCq0M-36">
          <mxGeometry x="-0.077" y="-2" relative="1" as="geometry">
            <mxPoint as="offset" />
          </mxGeometry>
        </mxCell>
        <mxCell id="MHwz3ngFE6legUIcCq0M-26" value="&lt;div&gt;HTML document parsing continues&lt;br&gt;&lt;/div&gt;&lt;div&gt;&lt;br&gt;&lt;/div&gt;&lt;div&gt;Content:&amp;nbsp;&lt;/div&gt;&lt;div&gt;&amp;lt;&lt;b&gt;div&lt;/b&gt; id=&quot;&lt;b&gt;map&lt;/b&gt;&quot;&amp;gt;&lt;/div&gt;&lt;div&gt;&lt;b&gt;ol&lt;/b&gt; object&lt;br&gt;&lt;/div&gt;&lt;div&gt;&lt;br&gt;&lt;/div&gt;" style="rounded=1;whiteSpace=wrap;html=1;fillColor=#e1d5e7;strokeColor=#9673a6;" vertex="1" parent="1">
          <mxGeometry x="360" y="240" width="120" height="120" as="geometry" />
        </mxCell>
        <mxCell id="MHwz3ngFE6legUIcCq0M-45" style="edgeStyle=orthogonalEdgeStyle;rounded=0;orthogonalLoop=1;jettySize=auto;html=1;exitX=0.75;exitY=1;exitDx=0;exitDy=0;entryX=0.75;entryY=0;entryDx=0;entryDy=0;" edge="1" parent="1" source="MHwz3ngFE6legUIcCq0M-43" target="MHwz3ngFE6legUIcCq0M-14">
          <mxGeometry relative="1" as="geometry" />
        </mxCell>
        <mxCell id="MHwz3ngFE6legUIcCq0M-55" value="&lt;div&gt;&lt;b&gt;map&lt;/b&gt;&lt;/div&gt;&lt;div&gt;object&lt;b&gt;&lt;br&gt;&lt;/b&gt;&lt;/div&gt;" style="edgeLabel;html=1;align=center;verticalAlign=middle;resizable=0;points=[];" vertex="1" connectable="0" parent="MHwz3ngFE6legUIcCq0M-45">
          <mxGeometry x="-0.0531" relative="1" as="geometry">
            <mxPoint as="offset" />
          </mxGeometry>
        </mxCell>
        <mxCell id="MHwz3ngFE6legUIcCq0M-46" style="edgeStyle=orthogonalEdgeStyle;rounded=0;orthogonalLoop=1;jettySize=auto;html=1;exitX=0.25;exitY=0;exitDx=0;exitDy=0;entryX=0.25;entryY=1;entryDx=0;entryDy=0;" edge="1" parent="1" source="MHwz3ngFE6legUIcCq0M-43" target="MHwz3ngFE6legUIcCq0M-20">
          <mxGeometry relative="1" as="geometry" />
        </mxCell>
        <mxCell id="MHwz3ngFE6legUIcCq0M-53" value="&lt;div&gt;request&lt;/div&gt;&lt;div&gt;tiles&lt;br&gt;&lt;/div&gt;" style="edgeLabel;html=1;align=center;verticalAlign=middle;resizable=0;points=[];" vertex="1" connectable="0" parent="MHwz3ngFE6legUIcCq0M-46">
          <mxGeometry x="0.0743" y="-1" relative="1" as="geometry">
            <mxPoint as="offset" />
          </mxGeometry>
        </mxCell>
        <mxCell id="MHwz3ngFE6legUIcCq0M-43" value="&lt;div&gt;&lt;b&gt;&lt;br&gt;&lt;/b&gt;&lt;/div&gt;&lt;div&gt;&lt;b&gt;&lt;br&gt;&lt;/b&gt;&lt;/div&gt;&lt;div&gt;&lt;b&gt;map&lt;/b&gt; object created and assigned to the &quot;map&quot; &lt;b&gt;div&lt;/b&gt;&lt;/div&gt;&lt;div&gt;&lt;br&gt;&lt;/div&gt;&lt;div&gt;&lt;br&gt;&lt;/div&gt;" style="rounded=1;whiteSpace=wrap;html=1;fillColor=#ffe6cc;strokeColor=#d79b00;" vertex="1" parent="1">
          <mxGeometry x="560" y="280" width="120" height="60" as="geometry" />
        </mxCell>
        <mxCell id="MHwz3ngFE6legUIcCq0M-48" value="&lt;div&gt;HTML parsing stopped and results visualized&lt;br&gt;&lt;/div&gt;&lt;div&gt;&lt;br&gt;&lt;/div&gt;&lt;div&gt;Contents:&lt;/div&gt;&lt;div&gt;&amp;lt;&lt;b&gt;div&lt;/b&gt; id=&quot;&lt;b&gt;map&lt;/b&gt;&quot;&amp;gt;&lt;/div&gt;&lt;div&gt;&lt;b&gt;ol&lt;/b&gt; object&lt;br&gt;&lt;/div&gt;&lt;div&gt;&quot;&lt;b&gt;map&lt;/b&gt;&quot; object&lt;br&gt;&lt;/div&gt;" style="rounded=1;whiteSpace=wrap;html=1;fillColor=#d5e8d4;strokeColor=#82b366;" vertex="1" parent="1">
          <mxGeometry x="740" y="285" width="120" height="150" as="geometry" />
        </mxCell>
        <mxCell id="MHwz3ngFE6legUIcCq0M-57" value="sd - HTML parsing sample for simple OpenLayers map view" style="shape=umlFrame;whiteSpace=wrap;html=1;pointerEvents=0;width=350;height=40;" vertex="1" parent="1">
          <mxGeometry x="90" y="150" width="790" height="420" as="geometry" />
        </mxCell>
      </root>
    </mxGraphModel>
  </diagram>
</mxfile>
